<svg width="680" height="520" viewBox="0 0 680 520" xmlns="http://www.w3.org/2000/svg">
<defs>
  <clipPath id="screen-clip">
    <rect x="220" y="20" width="240" height="480" rx="8"/>
  </clipPath>
</defs>

<!-- Device body -->
<rect x="205" y="8" width="270" height="504" rx="14" fill="#1a1a1a"/>
<!-- Screen bezel -->
<rect x="215" y="18" width="250" height="484" rx="10" fill="#0a0a0a"/>
<!-- Screen surface -->
<rect x="220" y="20" width="240" height="480" rx="8" fill="#f5f5f0"/>

<!-- TOP BAR -->
<rect x="220" y="20" width="240" height="36" rx="0" fill="#1a1a1a"/>
<rect x="220" y="52" width="240" height="2" fill="#1a1a1a"/>

<text x="232" y="42" font-family="monospace" font-size="13" font-weight="700" fill="#f5f5f0" text-anchor="start">BLE</text>
<circle cx="252" cy="30" r="4" fill="#4CAF50"/>
<text x="340" y="42" font-family="monospace" font-size="14" font-weight="700" fill="#f5f5f0" text-anchor="middle">GALLIUM</text>
<text x="448" y="42" font-family="monospace" font-size="11" fill="#888" text-anchor="end">USB</text>

<!-- WPM -->
<text x="232" y="76" font-family="monospace" font-size="11" fill="#333" text-anchor="start">WPM</text>
<text x="455" y="76" font-family="monospace" font-size="20" font-weight="700" fill="#1a1a1a" text-anchor="end">68</text>

<g transform="translate(224, 82)">
  <rect x="0"   y="52" width="18" height="8"  fill="#1a1a1a" opacity="0.8"/>
  <rect x="22"  y="40" width="18" height="20" fill="#1a1a1a" opacity="0.8"/>
  <rect x="44"  y="30" width="18" height="30" fill="#1a1a1a" opacity="0.8"/>
  <rect x="66"  y="22" width="18" height="38" fill="#1a1a1a" opacity="0.8"/>
  <rect x="88"  y="28" width="18" height="32" fill="#1a1a1a" opacity="0.8"/>
  <rect x="110" y="18" width="18" height="42" fill="#1a1a1a" opacity="0.8"/>
  <rect x="132" y="12" width="18" height="48" fill="#1a1a1a" opacity="0.8"/>
  <rect x="154" y="20" width="18" height="40" fill="#1a1a1a" opacity="0.8"/>
  <rect x="176" y="14" width="18" height="46" fill="#1a1a1a" opacity="0.8"/>
  <rect x="198" y="6"  width="18" height="54" fill="#1a1a1a"/>
  <line x1="0" y1="61" x2="220" y2="61" stroke="#1a1a1a" stroke-width="1"/>
</g>

<line x1="224" y1="162" x2="456" y2="162" stroke="#ccc" stroke-width="1"/>

<!-- BATTERIES -->
<text x="232" y="180" font-family="monospace" font-size="11" fill="#555" text-anchor="start">BATT</text>
<rect x="270" y="169" width="140" height="14" rx="3" fill="none" stroke="#1a1a1a" stroke-width="1.5"/>
<rect x="410" y="173" width="5" height="6" rx="1" fill="#1a1a1a"/>
<rect x="272" y="171" width="108" height="10" rx="2" fill="#1a1a1a"/>
<text x="455" y="181" font-family="monospace" font-size="11" fill="#333" text-anchor="end">78%</text>

<text x="232" y="202" font-family="monospace" font-size="11" fill="#555" text-anchor="start">PERIF</text>
<rect x="270" y="191" width="140" height="14" rx="3" fill="none" stroke="#1a1a1a" stroke-width="1.5"/>
<rect x="410" y="195" width="5" height="6" rx="1" fill="#1a1a1a"/>
<rect x="272" y="193" width="125" height="10" rx="2" fill="#1a1a1a"/>
<text x="455" y="203" font-family="monospace" font-size="11" fill="#333" text-anchor="end">91%</text>

<line x1="224" y1="216" x2="456" y2="216" stroke="#ccc" stroke-width="1"/>

<!-- GEM ANIMATION -->
<text x="340" y="238" font-family="monospace" font-size="10" fill="#999" text-anchor="middle">~ gem animation ~</text>

<g transform="translate(300, 248)">
  <rect x="30" y="0"  width="20" height="6" fill="#1a1a1a"/>
  <rect x="18" y="6"  width="44" height="6" fill="#1a1a1a"/>
  <rect x="6"  y="12" width="68" height="6" fill="#555"/>
  <rect x="12" y="12" width="56" height="6" fill="#1a1a1a"/>
  <rect x="0"  y="18" width="80" height="6" fill="#888"/>
  <rect x="6"  y="18" width="68" height="6" fill="#333"/>
  <rect x="0"  y="24" width="80" height="3"  fill="#1a1a1a"/>
  <rect x="6"  y="27" width="68" height="6" fill="#555"/>
  <rect x="18" y="33" width="44" height="6" fill="#777"/>
  <rect x="24" y="33" width="32" height="6" fill="#333"/>
  <rect x="30" y="39" width="20" height="6" fill="#999"/>
  <rect x="34" y="39" width="12" height="6" fill="#555"/>
  <rect x="36" y="45" width="8"  height="6" fill="#bbb"/>
  <rect x="38" y="51" width="4"  height="4" fill="#ddd"/>
</g>

<circle cx="288" cy="268" r="2" fill="#1a1a1a" opacity="0.3"/>
<circle cx="286" cy="282" r="1.5" fill="#1a1a1a" opacity="0.2"/>
<circle cx="392" cy="272" r="2" fill="#1a1a1a" opacity="0.3"/>
<circle cx="394" cy="286" r="1.5" fill="#1a1a1a" opacity="0.2"/>

<line x1="224" y1="320" x2="456" y2="320" stroke="#ccc" stroke-width="1"/>

<!-- BT PROFILE -->
<text x="232" y="342" font-family="monospace" font-size="11" fill="#555">BT PROFILE</text>
<g transform="translate(310, 330)">
  <circle cx="8"  cy="8" r="6" fill="#1a1a1a"/>
  <circle cx="26" cy="8" r="5" fill="none" stroke="#999" stroke-width="1.5"/>
  <circle cx="44" cy="8" r="5" fill="none" stroke="#999" stroke-width="1.5"/>
  <circle cx="62" cy="8" r="5" fill="none" stroke="#999" stroke-width="1.5"/>
  <circle cx="80" cy="8" r="5" fill="none" stroke="#999" stroke-width="1.5"/>
</g>

<!-- OUTPUT -->
<text x="232" y="372" font-family="monospace" font-size="11" fill="#555">OUTPUT</text>
<rect x="306" y="358" width="46" height="18" rx="3" fill="#1a1a1a"/>
<text x="329" y="371" font-family="monospace" font-size="11" fill="#f5f5f0" text-anchor="middle">BLE</text>
<rect x="356" y="358" width="46" height="18" rx="3" fill="none" stroke="#ccc" stroke-width="1"/>
<text x="379" y="371" font-family="monospace" font-size="11" fill="#999" text-anchor="middle">USB</text>

<line x1="224" y1="386" x2="456" y2="386" stroke="#ccc" stroke-width="1"/>

<text x="340" y="408" font-family="monospace" font-size="11" fill="#ccc" text-anchor="middle">CAPS WORD</text>

<!-- LAYER BIG -->
<rect x="224" y="418" width="232" height="80" rx="0" fill="#1a1a1a"/>
<text x="340" y="468" font-family="monospace" font-size="28" font-weight="700" fill="#f5f5f0" text-anchor="middle">GALLIUM</text>

<!-- ANNOTATIONS -->
<text x="100" y="45" font-family="monospace" font-size="11" fill="#666" text-anchor="end">BLE + layer</text>
<line x1="105" y1="42" x2="215" y2="38" stroke="#aaa" stroke-width="0.5" stroke-dasharray="3,3"/>

<text x="100" y="100" font-family="monospace" font-size="11" fill="#666" text-anchor="end">WPM chart</text>
<line x1="105" y1="97" x2="215" y2="110" stroke="#aaa" stroke-width="0.5" stroke-dasharray="3,3"/>

<text x="100" y="185" font-family="monospace" font-size="11" fill="#666" text-anchor="end">Batteries</text>
<line x1="105" y1="182" x2="215" y2="183" stroke="#aaa" stroke-width="0.5" stroke-dasharray="3,3"/>

<text x="100" y="285" font-family="monospace" font-size="11" fill="#666" text-anchor="end">Gem animation</text>
<line x1="105" y1="282" x2="215" y2="282" stroke="#aaa" stroke-width="0.5" stroke-dasharray="3,3"/>

<text x="580" y="342" font-family="monospace" font-size="11" fill="#666" text-anchor="start">BT profile</text>
<line x1="575" y1="339" x2="460" y2="339" stroke="#aaa" stroke-width="0.5" stroke-dasharray="3,3"/>

<text x="580" y="372" font-family="monospace" font-size="11" fill="#666" text-anchor="start">BLE/USB</text>
<line x1="575" y1="369" x2="460" y2="369" stroke="#aaa" stroke-width="0.5" stroke-dasharray="3,3"/>

<text x="580" y="460" font-family="monospace" font-size="11" fill="#666" text-anchor="start">Active layer</text>
<line x1="575" y1="457" x2="460" y2="457" stroke="#aaa" stroke-width="0.5" stroke-dasharray="3,3"/>

</svg>
