<svg width="680" height="440" viewBox="0 0 680 440" xmlns="http://www.w3.org/2000/svg">

<!-- Device body — quadratischer Screen 240x240 -->
<rect x="205" y="8"  width="270" height="334" rx="14" fill="#1a1a1a"/>
<!-- Screen bezel -->
<rect x="215" y="18" width="250" height="314" rx="10" fill="#0a0a0a"/>
<!-- Screen surface — quadratisch 240x240 -->
<rect x="220" y="28" width="240" height="294" rx="8" fill="#f5f5f0"/>

<!-- ================================================ -->
<!-- BEREICH 1: BATTERIEN L / R                       -->
<!-- ================================================ -->
<text x="232" y="58" font-family="monospace" font-size="11" fill="#555">L</text>
<rect x="246" y="46" width="72" height="13" rx="3" fill="none" stroke="#1a1a1a" stroke-width="1.5"/>
<rect x="318" y="50" width="4" height="5" rx="1" fill="#1a1a1a"/>
<rect x="248" y="48" width="55" height="9" rx="2" fill="#1a1a1a"/>
<text x="326" y="57" font-family="monospace" font-size="10" fill="#333">78%</text>

<text x="352" y="58" font-family="monospace" font-size="11" fill="#555">R</text>
<rect x="366" y="46" width="72" height="13" rx="3" fill="none" stroke="#1a1a1a" stroke-width="1.5"/>
<rect x="438" y="50" width="4" height="5" rx="1" fill="#1a1a1a"/>
<rect x="368" y="48" width="64" height="9" rx="2" fill="#1a1a1a"/>
<text x="446" y="57" font-family="monospace" font-size="10" fill="#333">91%</text>

<line x1="224" y1="68" x2="456" y2="68" stroke="#ccc" stroke-width="1"/>

<!-- ================================================ -->
<!-- BEREICH 2: WPM                                   -->
<!-- ================================================ -->
<text x="232" y="86" font-family="monospace" font-size="11" fill="#333">WPM</text>
<text x="455" y="86" font-family="monospace" font-size="20" font-weight="700" fill="#1a1a1a" text-anchor="end">68</text>

<g transform="translate(224, 92)">
  <rect x="0"   y="36" width="18" height="8"  fill="#1a1a1a" opacity="0.8"/>
  <rect x="22"  y="26" width="18" height="18" fill="#1a1a1a" opacity="0.8"/>
  <rect x="44"  y="18" width="18" height="26" fill="#1a1a1a" opacity="0.8"/>
  <rect x="66"  y="12" width="18" height="32" fill="#1a1a1a" opacity="0.8"/>
  <rect x="88"  y="16" width="18" height="28" fill="#1a1a1a" opacity="0.8"/>
  <rect x="110" y="10" width="18" height="34" fill="#1a1a1a" opacity="0.8"/>
  <rect x="132" y="4"  width="18" height="40" fill="#1a1a1a" opacity="0.8"/>
  <rect x="154" y="10" width="18" height="34" fill="#1a1a1a" opacity="0.8"/>
  <rect x="176" y="6"  width="18" height="38" fill="#1a1a1a" opacity="0.8"/>
  <rect x="198" y="0"  width="18" height="44" fill="#1a1a1a"/>
  <line x1="0" y1="45" x2="220" y2="45" stroke="#1a1a1a" stroke-width="1"/>
</g>

<line x1="224" y1="148" x2="456" y2="148" stroke="#ccc" stroke-width="1"/>

<!-- ================================================ -->
<!-- BEREICH 3: LAYER NAME                            -->
<!-- ================================================ -->
<rect x="224" y="152" width="232" height="100" rx="0" fill="#1a1a1a"/>
<text x="340" y="218" font-family="monospace" font-size="36" font-weight="700" fill="#f5f5f0" text-anchor="middle">BASE</text>

<line x1="224" y1="256" x2="456" y2="256" stroke="#ccc" stroke-width="1"/>

<!-- ================================================ -->
<!-- BEREICH 4: BLE + PROFILE KREISE                  -->
<!-- ================================================ -->
<text x="232" y="282" font-family="monospace" font-size="11" fill="#555">BLE</text>
<g transform="translate(265, 269)">
  <circle cx="8"  cy="8" r="6" fill="#1a1a1a"/>
  <circle cx="26" cy="8" r="5" fill="none" stroke="#999" stroke-width="1.5"/>
  <circle cx="44" cy="8" r="5" fill="none" stroke="#999" stroke-width="1.5"/>
  <circle cx="62" cy="8" r="5" fill="none" stroke="#999" stroke-width="1.5"/>
  <circle cx="80" cy="8" r="5" fill="none" stroke="#999" stroke-width="1.5"/>
</g>

<!-- ================================================ -->
<!-- ANNOTATIONS                                      -->
<!-- ================================================ -->
<text x="100" y="54" font-family="monospace" font-size="11" fill="#666" text-anchor="end">Batteries L/R</text>
<line x1="105" y1="51" x2="215" y2="51" stroke="#aaa" stroke-width="0.5" stroke-dasharray="3,3"/>

<text x="100" y="116" font-family="monospace" font-size="11" fill="#666" text-anchor="end">WPM chart</text>
<line x1="105" y1="113" x2="215" y2="113" stroke="#aaa" stroke-width="0.5" stroke-dasharray="3,3"/>

<text x="100" y="205" font-family="monospace" font-size="11" fill="#666" text-anchor="end">Active layer</text>
<line x1="105" y1="202" x2="215" y2="202" stroke="#aaa" stroke-width="0.5" stroke-dasharray="3,3"/>

<text x="580" y="278" font-family="monospace" font-size="11" fill="#666" text-anchor="start">BLE profile</text>
<line x1="575" y1="275" x2="460" y2="275" stroke="#aaa" stroke-width="0.5" stroke-dasharray="3,3"/>

</svg>
